<svg width="72" height="72" viewBox="0 0 72 72" fill="none" xmlns="http://www.w3.org/2000/svg">
<g filter="url(#filter0_dd_8_900)">
<rect x="12" y="2" width="48" height="48" rx="12" fill="#135BEC"/>
<path d="M42.8057 23.0832L41.5904 20.4096L38.9168 19.1943L41.5904 17.9791L42.8057 15.3054L44.0209 17.9791L46.6946 19.1943L44.0209 20.4096L42.8057 23.0832ZM42.8057 36.6943L41.5904 34.0207L38.9168 32.8054L41.5904 31.5902L42.8057 28.9166L44.0209 31.5902L46.6946 32.8054L44.0209 34.0207L42.8057 36.6943ZM33.0834 33.7777L30.6529 28.4304L25.3057 25.9999L30.6529 23.5693L33.0834 18.2221L35.514 23.5693L40.8612 25.9999L35.514 28.4304L33.0834 33.7777ZM33.0834 29.0624L34.0557 26.9721L36.1459 25.9999L34.0557 25.0277L33.0834 22.9374L32.1112 25.0277L30.0209 25.9999L32.1112 26.9721L33.0834 29.0624Z" fill="white"/>
</g>
<defs>
<filter id="filter0_dd_8_900" x="0" y="0" width="72" height="72" filterUnits="userSpaceOnUse" color-interpolation-filters="sRGB">
<feFlood flood-opacity="0" result="BackgroundImageFix"/>
<feColorMatrix in="SourceAlpha" type="matrix" values="0 0 0 0 0 0 0 0 0 0 0 0 0 0 0 0 0 0 127 0" result="hardAlpha"/>
<feMorphology radius="4" operator="erode" in="SourceAlpha" result="effect1_dropShadow_8_900"/>
<feOffset dy="4"/>
<feGaussianBlur stdDeviation="3"/>
<feComposite in2="hardAlpha" operator="out"/>
<feColorMatrix type="matrix" values="0 0 0 0 0.0745098 0 0 0 0 0.356863 0 0 0 0 0.92549 0 0 0 0.25 0"/>
<feBlend mode="normal" in2="BackgroundImageFix" result="effect1_dropShadow_8_900"/>
<feColorMatrix in="SourceAlpha" type="matrix" values="0 0 0 0 0 0 0 0 0 0 0 0 0 0 0 0 0 0 127 0" result="hardAlpha"/>
<feMorphology radius="3" operator="erode" in="SourceAlpha" result="effect2_dropShadow_8_900"/>
<feOffset dy="10"/>
<feGaussianBlur stdDeviation="7.5"/>
<feComposite in2="hardAlpha" operator="out"/>
<feColorMatrix type="matrix" values="0 0 0 0 0.0745098 0 0 0 0 0.356863 0 0 0 0 0.92549 0 0 0 0.25 0"/>
<feBlend mode="normal" in2="effect1_dropShadow_8_900" result="effect2_dropShadow_8_900"/>
<feBlend mode="normal" in="SourceGraphic" in2="effect2_dropShadow_8_900" result="shape"/>
</filter>
</defs>
</svg>
